<!--?xml version="1.0" encoding="UTF-8" standalone="no" ?--><svg xmlns="http://www.w3.org/2000/svg" xmlns:xlink="http://www.w3.org/1999/xlink" version="1.1" width="1000" height="600" viewBox="0 0 1000 600" xml:space="preserve"><desc>Created with Fabric.js 5.3.0</desc><defs><clipPath id="CLIPPATH_30">	<polygon transform="matrix(9.57 0 0 9.57 252 217)" points="0,-17.38 5.65,-5.94 18.27,-4.1 9.13,4.8 11.29,17.37 0,11.44 -11.29,17.37 -9.14,4.8 -18.27,-4.1 -5.65,-5.94 "></polygon></clipPath><clipPath id="CLIPPATH_31">	<rect transform="matrix(1 0 0 1 613.5 217.5)" x="-105.34375" y="-105.34375" rx="" ry="" width="210.6875" height="210.6875"></rect></clipPath><style></style></defs><g id="1718781925316" clip-path="url(#CLIPPATH_30)"><g transform="matrix(0.67 0 0 0.67 280.38 217)"><filter id="SVGID_25" y="-20%" height="140%" x="-20%" width="140%">	<feGaussianBlur in="SourceAlpha" stdDeviation="0"></feGaussianBlur>	<feOffset dx="0" dy="0" result="oBlur"></feOffset>	<feFlood flood-color="rgb(0,0,0)" flood-opacity="1"></feFlood>	<feComposite in2="oBlur" operator="in"></feComposite>	<feMerge>		<feMergeNode></feMergeNode>		<feMergeNode in="SourceGraphic"></feMergeNode>	</feMerge></filter>	<image style="stroke: none; stroke-width: 0; stroke-dasharray: none; stroke-linecap: butt; stroke-dashoffset: 0; stroke-linejoin: miter; stroke-miterlimit: 4; fill: none; fill-rule: nonzero; opacity: 1;filter: url(#SVGID_25);" xlink:href="https://play.fancyproductdesigner.com/wp-content/uploads/fancy_products_uploads/2023/11/10/3e4415471b9cf5c7debf477c03416efb.jpg" x="-286" y="-350" width="572" height="700"></image></g></g><g id="1718781931246" clip-path="url(#CLIPPATH_31)"><g transform="matrix(0.49 0 0 0.49 613 217)"><filter id="SVGID_29" y="-20%" height="140%" x="-20%" width="140%">	<feGaussianBlur in="SourceAlpha" stdDeviation="0"></feGaussianBlur>	<feOffset dx="0" dy="0" result="oBlur"></feOffset>	<feFlood flood-color="rgb(0,0,0)" flood-opacity="1"></feFlood>	<feComposite in2="oBlur" operator="in"></feComposite>	<feMerge>		<feMergeNode></feMergeNode>		<feMergeNode in="SourceGraphic"></feMergeNode>	</feMerge></filter>	<image style="stroke: none; stroke-width: 0; stroke-dasharray: none; stroke-linecap: butt; stroke-dashoffset: 0; stroke-linejoin: miter; stroke-miterlimit: 4; fill: none; fill-rule: nonzero; opacity: 1;filter: url(#SVGID_29);" xlink:href="https://play.fancyproductdesigner.com/wp-content/uploads/fancy_products_uploads/2023/11/08/80c92839cbaed62318324a52f61c75d7.jpg" x="-400" y="-266.5" width="800" height="533"></image></g></g></svg>