<!--?xml version="1.0" encoding="UTF-8" standalone="no" ?--><svg xmlns="http://www.w3.org/2000/svg" xmlns:xlink="http://www.w3.org/1999/xlink" version="1.1" width="1000" height="600" viewBox="0 0 1000 600" xml:space="preserve"><desc>Created with Fabric.js 5.3.0</desc><defs><style>@import url("https://fonts.googleapis.com/css2?family=Lobster:ital,wght@0,400;0,700;1,700&amp;Grandstander:ital,wght@0,400;0,700;1,700&amp;Holtwood+One+SC:ital,wght@0,400;0,700;1,700&amp;Anton:ital,wght@0,400;0,700;1,700&amp;Gluten:ital,wght@0,400;0,700;1,700&amp;Open+Sans:ital,wght@0,400;0,700;1,700&amp;Roboto:ital,wght@0,400;0,700;1,700&amp;display=swap");</style></defs><g transform="matrix(0.95 0 0 0.95 199 170.47)" id="1718773238693"><filter id="SVGID_1" y="-20%" height="140%" x="-20%" width="140%">	<feGaussianBlur in="SourceAlpha" stdDeviation="0"></feGaussianBlur>	<feOffset dx="0" dy="0" result="oBlur"></feOffset>	<feFlood flood-color="rgb(0,0,0)" flood-opacity="1"></feFlood>	<feComposite in2="oBlur" operator="in"></feComposite>	<feMerge>		<feMergeNode></feMergeNode>		<feMergeNode in="SourceGraphic"></feMergeNode>	</feMerge></filter>	<image style="stroke: none; stroke-width: 0; stroke-dasharray: none; stroke-linecap: butt; stroke-dashoffset: 0; stroke-linejoin: miter; stroke-miterlimit: 4; fill: none; fill-rule: nonzero; opacity: 1;filter: url(#SVGID_1);" xlink:href="https://play.fancyproductdesigner.com/wp-content/uploads/2024/06/alien.png?t=1718773238693" x="-67.5" y="-78.5" width="135" height="157"></image></g><g transform="matrix(0.16 0 0 0.16 564 189)" id="1718773238722"><filter id="SVGID_3" y="-20%" height="140%" x="-20%" width="140%">	<feGaussianBlur in="SourceAlpha" stdDeviation="0"></feGaussianBlur>	<feOffset dx="0" dy="0" result="oBlur"></feOffset>	<feFlood flood-color="rgb(0,0,0)" flood-opacity="1"></feFlood>	<feComposite in2="oBlur" operator="in"></feComposite>	<feMerge>		<feMergeNode></feMergeNode>		<feMergeNode in="SourceGraphic"></feMergeNode>	</feMerge></filter>	<image style="stroke: none; stroke-width: 0; stroke-dasharray: none; stroke-linecap: butt; stroke-dashoffset: 0; stroke-linejoin: miter; stroke-miterlimit: 4; fill: none; fill-rule: nonzero; opacity: 1;filter: url(#SVGID_3);" xlink:href="https://play.fancyproductdesigner.com/wp-content/uploads/2023/09/mt-sample-background.jpg?t=1718773238722" x="-960" y="-640" width="1920" height="1280"></image></g><g transform="matrix(0.34 0 0 0.34 302.58 392)" id="1718773238822"><filter id="SVGID_5" y="-20%" height="140%" x="-20%" width="140%">	<feGaussianBlur in="SourceAlpha" stdDeviation="0"></feGaussianBlur>	<feOffset dx="0" dy="0" result="oBlur"></feOffset>	<feFlood flood-color="rgb(0,0,0)" flood-opacity="1"></feFlood>	<feComposite in2="oBlur" operator="in"></feComposite>	<feMerge>		<feMergeNode></feMergeNode>		<feMergeNode in="SourceGraphic"></feMergeNode>	</feMerge></filter><g style="filter: url(#SVGID_5);">		<g transform="matrix(1 0 0 1 -147.38 186.86)" id="path3161_1_"><path style="stroke: rgb(1,1,1); stroke-width: 4; stroke-dasharray: none; stroke-linecap: round; stroke-dashoffset: 0; stroke-linejoin: round; stroke-miterlimit: 4; fill: rgb(255,255,255); fill-rule: nonzero; opacity: 1;" transform=" translate(-39.29, -479.63)" d="M 65.645 505.985 C 51.077 520.553 27.465999999999994 520.565 12.910999999999994 506.00800000000004 C -1.6440000000000055 491.451 -1.6340000000000057 467.84200000000004 12.932999999999995 453.27400000000006 C 27.501999999999995 438.7060000000001 51.111999999999995 438.6960000000001 65.666 453.25100000000003 C 80.224 467.805 80.212 491.417 65.645 505.985 L 65.645 505.985 z" stroke-linecap="round"></path></g>		<g transform="matrix(1 0 0 1 -145.03 195.27)" id="path241"><path style="stroke: none; stroke-width: 1; stroke-dasharray: none; stroke-linecap: butt; stroke-dashoffset: 0; stroke-linejoin: miter; stroke-miterlimit: 4; fill: rgb(1,1,1); fill-rule: nonzero; opacity: 1;" transform=" translate(-41.64, -488.05)" d="M 72.284 459.874 C 74.08900000000001 464.255 75.09 469.052 75.09 474.08500000000004 C 75.09 494.689 58.402 510.39000000000004 37.817 510.39000000000004 C 24.184 510.39000000000004 12.267 504.06000000000006 5.768999999999998 493.12800000000004 C 11.352999999999998 506.68100000000004 24.677 516.2220000000001 40.233 516.2220000000001 C 60.818 516.2220000000001 77.506 499.5210000000001 77.506 478.9170000000001 C 77.506 471.959 75.597 465.45 72.284 459.874 z" stroke-linecap="round"></path></g>		<g transform="matrix(1 0 0 1 1.12 116.25)" id="path2385"><path style="stroke: rgb(1,1,1); stroke-width: 4; stroke-dasharray: none; stroke-linecap: round; stroke-dashoffset: 0; stroke-linejoin: round; stroke-miterlimit: 4; fill: rgb(255,255,255); fill-rule: nonzero; opacity: 1;" transform=" translate(-187.79, -409.03)" d="M 350.937 409.026 C 350.97 499.214 277.951 572.346 187.84400000000002 572.38 C 97.73700000000002 572.411 24.666000000000025 499.327 24.634000000000015 409.14300000000003 C 24.634000000000015 409.10400000000004 24.634000000000015 409.06500000000005 24.634000000000015 409.02700000000004 C 24.602000000000015 318.83900000000006 97.62200000000001 245.70400000000004 187.728 245.67300000000003 C 277.834 245.64200000000002 350.906 318.726 350.937 408.91200000000003 C 350.937 408.95 350.937 408.989 350.937 409.026 z" stroke-linecap="round"></path></g>		<g transform="matrix(1 0 0 1 1.26 116.26)" id="path3276"><path style="stroke: none; stroke-width: 1; stroke-dasharray: none; stroke-linecap: butt; stroke-dashoffset: 0; stroke-linejoin: miter; stroke-miterlimit: 4; fill: rgb(1,1,1); fill-rule: nonzero; opacity: 1;" transform=" translate(-187.93, -409.03)" d="M 187.78 245.73 C 170.424 245.73 153.70600000000002 248.468 138.011 253.5 C 152.129 250.2 167.019 248.418 182.408 248.418 C 224.623 248.418 263.12199999999996 261.694 292.09999999999997 283.48900000000003 C 263.816 259.913 227.438 245.73 187.78 245.73 z M 342.291 356.444 C 344.432 365.165 345.563 374.16900000000004 345.563 383.409 C 345.563 457.927 272.467 518.401 182.408 518.401 C 107.09599999999999 518.401 43.678 476.11799999999994 24.917999999999978 418.68899999999996 C 29.91899999999998 504.33599999999996 100.95999999999998 572.329 187.778 572.329 C 277.839 572.329 350.933 499.17099999999994 350.933 409.03 C 350.936 390.64 347.898 372.943 342.291 356.444 z" stroke-linecap="round"></path></g>		<g transform="matrix(1 0 0 1 -55.98 248.78)" id="path3165"><path style="stroke: rgb(1,1,1); stroke-width: 4; stroke-dasharray: none; stroke-linecap: round; stroke-dashoffset: 0; stroke-linejoin: round; stroke-miterlimit: 4; fill: rgb(255,255,255); fill-rule: nonzero; opacity: 1;" transform=" translate(-130.69, -541.55)" d="M 130.672 502.288 C 98.008 502.288 71.52 528.833 71.52 561.5260000000001 C 71.52 568.2860000000001 72.65599999999999 574.758 74.744 580.811 L 186.636 580.811 C 188.72299999999998 574.758 189.859 568.2860000000001 189.859 561.5260000000001 C 189.857 528.833 163.336 502.288 130.672 502.288 z" stroke-linecap="round"></path></g>		<g transform="matrix(1 0 0 1 -77.08 271.96)" id="path3220"><path style="stroke: rgb(1,1,1); stroke-width: 4; stroke-dasharray: none; stroke-linecap: round; stroke-dashoffset: 0; stroke-linejoin: round; stroke-miterlimit: 4; fill: rgb(249,213,228); fill-rule: nonzero; opacity: 1;" transform=" translate(-109.59, -564.73)" d="M 125.435 564.731 C 125.435 575.124 118.34100000000001 583.547 109.589 583.547 C 100.838 583.547 93.744 575.121 93.744 564.731 C 93.744 554.338 100.838 545.915 109.589 545.915 C 118.341 545.915 125.435 554.338 125.435 564.731 L 125.435 564.731 z" stroke-linecap="round"></path></g>		<g transform="matrix(1 0 0 1 -37.33 271.96)" id="path3224"><path style="stroke: rgb(1,1,1); stroke-width: 4; stroke-dasharray: none; stroke-linecap: round; stroke-dashoffset: 0; stroke-linejoin: round; stroke-miterlimit: 4; fill: rgb(249,213,228); fill-rule: nonzero; opacity: 1;" transform=" translate(-149.34, -564.73)" d="M 165.183 564.731 C 165.183 575.124 158.089 583.547 149.337 583.547 C 140.58599999999998 583.547 133.492 575.121 133.492 564.731 C 133.492 554.338 140.58599999999998 545.915 149.337 545.915 C 158.089 545.915 165.183 554.338 165.183 564.731 L 165.183 564.731 z" stroke-linecap="round"></path></g>		<g transform="matrix(1 0 0 1 -56.13 271.96)" id="path3222"><path style="stroke: rgb(1,1,1); stroke-width: 4; stroke-dasharray: none; stroke-linecap: round; stroke-dashoffset: 0; stroke-linejoin: round; stroke-miterlimit: 4; fill: rgb(249,213,228); fill-rule: nonzero; opacity: 1;" transform=" translate(-130.54, -564.73)" d="M 146.383 564.731 C 146.383 575.124 139.288 583.547 130.537 583.547 C 121.786 583.547 114.691 575.121 114.691 564.731 C 114.691 554.338 121.786 545.915 130.537 545.915 C 139.289 545.915 146.383 554.338 146.383 564.731 L 146.383 564.731 z" stroke-linecap="round"></path></g>		<g transform="matrix(1 0 0 1 62.36 248.78)" id="path3163"><path style="stroke: rgb(1,1,1); stroke-width: 4; stroke-dasharray: none; stroke-linecap: round; stroke-dashoffset: 0; stroke-linejoin: round; stroke-miterlimit: 4; fill: rgb(255,255,255); fill-rule: nonzero; opacity: 1;" transform=" translate(-249.03, -541.55)" d="M 249.043 502.288 C 216.37900000000002 502.288 189.856 528.833 189.856 561.5260000000001 C 189.856 568.2860000000001 190.993 574.758 193.081 580.811 L 304.97299999999996 580.811 C 307.05899999999997 574.758 308.19599999999997 568.2860000000001 308.19599999999997 561.5260000000001 C 308.195 528.833 281.707 502.288 249.043 502.288 z" stroke-linecap="round"></path></g>		<g transform="matrix(1 0 0 1 44.85 271.96)" id="path3226"><path style="stroke: rgb(1,1,1); stroke-width: 4; stroke-dasharray: none; stroke-linecap: round; stroke-dashoffset: 0; stroke-linejoin: round; stroke-miterlimit: 4; fill: rgb(249,213,228); fill-rule: nonzero; opacity: 1;" transform=" translate(-231.52, -564.73)" d="M 247.364 564.731 C 247.364 575.124 240.269 583.547 231.518 583.547 C 222.768 583.547 215.672 575.121 215.672 564.731 C 215.672 554.338 222.768 545.915 231.518 545.915 C 240.27 545.915 247.364 554.338 247.364 564.731 L 247.364 564.731 z" stroke-linecap="round"></path></g>		<g transform="matrix(1 0 0 1 84.6 271.96)" id="path3228"><path style="stroke: rgb(1,1,1); stroke-width: 4; stroke-dasharray: none; stroke-linecap: round; stroke-dashoffset: 0; stroke-linejoin: round; stroke-miterlimit: 4; fill: rgb(249,213,228); fill-rule: nonzero; opacity: 1;" transform=" translate(-271.27, -564.73)" d="M 287.112 564.731 C 287.112 575.124 280.01800000000003 583.547 271.266 583.547 C 262.51500000000004 583.547 255.42100000000002 575.121 255.42100000000002 564.731 C 255.42100000000002 554.338 262.51500000000004 545.915 271.266 545.915 C 280.019 545.915 287.112 554.338 287.112 564.731 L 287.112 564.731 z" stroke-linecap="round"></path></g>		<g transform="matrix(1 0 0 1 65.8 271.96)" id="path3230"><path style="stroke: rgb(1,1,1); stroke-width: 4; stroke-dasharray: none; stroke-linecap: round; stroke-dashoffset: 0; stroke-linejoin: round; stroke-miterlimit: 4; fill: rgb(249,213,228); fill-rule: nonzero; opacity: 1;" transform=" translate(-252.47, -564.73)" d="M 268.312 564.731 C 268.312 575.124 261.218 583.547 252.466 583.547 C 243.715 583.547 236.62 575.121 236.62 564.731 C 236.62 554.338 243.715 545.915 252.466 545.915 C 261.219 545.915 268.312 554.338 268.312 564.731 L 268.312 564.731 z" stroke-linecap="round"></path></g>		<g transform="matrix(1 0 0 1 -46.75 124.56)" id="path3242"><path style="stroke: none; stroke-width: 1; stroke-dasharray: none; stroke-linecap: butt; stroke-dashoffset: 0; stroke-linejoin: miter; stroke-miterlimit: 4; fill: rgb(1,1,1); fill-rule: nonzero; opacity: 1;" transform=" translate(-139.91, -417.33)" d="M 170.769 417.329 C 170.769 434.386 156.95600000000002 448.212 139.91500000000002 448.212 C 122.87400000000002 448.212 109.06000000000002 434.38599999999997 109.06000000000002 417.329 C 109.06000000000002 400.273 122.87400000000002 386.446 139.91500000000002 386.446 C 156.95600000000002 386.446 170.769 400.273 170.769 417.329 L 170.769 417.329 z" stroke-linecap="round"></path></g>		<g transform="matrix(1 0 0 1 4.7 135.02)" id="path3242_1_"><path style="stroke: none; stroke-width: 1; stroke-dasharray: none; stroke-linecap: butt; stroke-dashoffset: 0; stroke-linejoin: miter; stroke-miterlimit: 4; fill: rgb(1,1,1); fill-rule: nonzero; opacity: 1;" transform=" translate(-191.36, -427.79)" d="M 220.413 445.758 C 208.28400000000002 465.371 185.448 473.22499999999997 169.404 463.303 C 153.361 453.383 150.188 429.442 162.316 409.828 C 174.443 390.219 197.284 382.363 213.325 392.28299999999996 C 229.368 402.206 232.541 426.147 220.413 445.758 L 220.413 445.758 z" stroke-linecap="round"></path></g>		<g transform="matrix(1 0 0 1 -0.49 118.43)" id="path268"><path style="stroke: rgb(1,1,1); stroke-width: 4; stroke-dasharray: none; stroke-linecap: butt; stroke-dashoffset: 0; stroke-linejoin: miter; stroke-miterlimit: 4; fill: rgb(106,55,148); fill-rule: nonzero; opacity: 1;" transform=" translate(-186.18, -411.21)" d="M 222.65 429.915 C 211.524 457.96200000000005 184.2 469.683 161.61700000000002 456.095 C 139.03400000000005 442.50700000000006 136.42000000000002 412.773 155.775 389.67900000000003 C 175.131 366.58500000000004 202.458 354.865 216.809 363.499 C 231.16 372.13300000000004 233.775 401.87 222.65 429.915 z" stroke-linecap="round"></path></g>		<g transform="matrix(1 0 0 1 -51.85 118.28)" id="path3159"><path style="stroke: rgb(1,1,1); stroke-width: 4; stroke-dasharray: none; stroke-linecap: round; stroke-dashoffset: 0; stroke-linejoin: round; stroke-miterlimit: 4; fill: rgb(255,255,255); fill-rule: nonzero; opacity: 1;" transform=" translate(-134.82, -411.05)" d="M 161.542 395.622 C 170.069 410.39300000000003 165.02 429.274 150.262 437.796 C 135.504 446.316 116.628 441.24899999999997 108.1 426.478 C 99.57199999999999 411.708 104.622 392.82800000000003 119.38 384.30600000000004 C 134.137 375.784 153.014 380.852 161.542 395.622 L 161.542 395.622 z" stroke-linecap="round"></path></g>		<g transform="matrix(1 0 0 1 69.01 125.03)" id="path3244"><path style="stroke: none; stroke-width: 1; stroke-dasharray: none; stroke-linecap: butt; stroke-dashoffset: 0; stroke-linejoin: miter; stroke-miterlimit: 4; fill: rgb(1,1,1); fill-rule: nonzero; opacity: 1;" transform=" translate(-255.68, -417.8)" d="M 286.529 417.804 C 286.529 434.85999999999996 272.716 448.686 255.675 448.686 C 238.63400000000001 448.686 224.82100000000003 434.85999999999996 224.82100000000003 417.804 C 224.82100000000003 400.748 238.63400000000001 386.92199999999997 255.675 386.92199999999997 C 272.716 386.92199999999997 286.529 400.749 286.529 417.804 L 286.529 417.804 z" stroke-linecap="round"></path></g>		<g transform="matrix(1 0 0 1 64.01 118.28)" id="path3161"><path style="stroke: rgb(1,1,1); stroke-width: 4; stroke-dasharray: none; stroke-linecap: round; stroke-dashoffset: 0; stroke-linejoin: round; stroke-miterlimit: 4; fill: rgb(255,255,255); fill-rule: nonzero; opacity: 1;" transform=" translate(-250.68, -411.05)" d="M 272.499 432.868 C 260.437 444.929 240.89400000000003 444.936 228.84400000000002 432.888 C 216.794 420.84 216.80300000000003 401.294 228.86400000000003 389.234 C 240.92600000000004 377.173 260.46900000000005 377.166 272.51800000000003 389.214 C 284.568 401.262 284.559 420.807 272.499 432.868 L 272.499 432.868 z" stroke-linecap="round"></path></g>		<g transform="matrix(1 0 0 1 3.3 -37.28)" id="path3246"><path style="stroke: none; stroke-width: 1; stroke-dasharray: none; stroke-linecap: butt; stroke-dashoffset: 0; stroke-linejoin: miter; stroke-miterlimit: 4; fill: rgb(1,1,1); fill-rule: nonzero; opacity: 1;" transform=" translate(-189.96, -255.5)" d="M 265.707 189.029 C 267.23699999999997 195.365 268.057 202.005 268.057 208.811 C 268.057 255.282 230.34900000000002 309.10900000000004 183.92000000000002 309.10900000000004 C 150.079 309.10900000000004 120.92600000000002 280.49800000000005 107.58800000000002 246.99000000000004 C 117.91700000000003 285.677 150.103 321.961 188.20100000000002 321.961 C 234.63000000000002 321.961 272.338 268.092 272.338 221.622 C 272.338 210.05800000000002 269.978 199.05900000000003 265.749 189.029 L 265.707 189.029 L 265.707 189.029 z" stroke-linecap="round"></path></g>		<g transform="matrix(1 0 0 1 -43.44 134.87)" id="path3264"><path style="stroke: rgb(1,1,1); stroke-width: 4; stroke-dasharray: none; stroke-linecap: round; stroke-dashoffset: 0; stroke-linejoin: round; stroke-miterlimit: 4; fill: rgb(249,213,228); fill-rule: nonzero; opacity: 1;" transform=" translate(-143.23, -427.65)" d="M 148.539 418.444 C 154.321 421.786 156.634 428.61600000000004 153.70299999999997 433.696 C 150.771 438.778 143.70799999999997 440.18800000000005 137.92499999999998 436.84400000000005 C 132.142 433.50200000000007 129.82999999999998 426.67400000000004 132.761 421.59200000000004 C 135.692 416.513 142.756 415.103 148.539 418.444 L 148.539 418.444 z" stroke-linecap="round"></path></g>		<g transform="matrix(1 0 0 1 -30.12 111.79)" id="path3266"><path style="stroke: rgb(1,1,1); stroke-width: 4; stroke-dasharray: none; stroke-linecap: round; stroke-dashoffset: 0; stroke-linejoin: round; stroke-miterlimit: 4; fill: rgb(249,213,228); fill-rule: nonzero; opacity: 1;" transform=" translate(-156.55, -404.57)" d="M 161.852 395.366 C 167.635 398.70799999999997 169.947 405.536 167.016 410.618 C 164.08499999999998 415.698 157.021 417.108 151.238 413.766 C 145.456 410.42400000000004 143.143 403.596 146.075 398.51500000000004 C 149.005 393.434 156.069 392.023 161.852 395.366 L 161.852 395.366 z" stroke-linecap="round"></path></g>		<g transform="matrix(1 0 0 1 -31.07 126.6)" id="path3268"><path style="stroke: rgb(1,1,1); stroke-width: 4; stroke-dasharray: none; stroke-linecap: round; stroke-dashoffset: 0; stroke-linejoin: round; stroke-miterlimit: 4; fill: rgb(249,213,228); fill-rule: nonzero; opacity: 1;" transform=" translate(-155.6, -419.38)" d="M 160.905 410.176 C 166.688 413.518 169.001 420.347 166.069 425.428 C 163.13799999999998 430.51 156.075 431.92 150.292 428.578 C 144.50900000000001 425.23599999999993 142.196 418.40799999999996 145.12800000000001 413.32599999999996 C 148.058 408.245 155.122 406.834 160.905 410.176 L 160.905 410.176 z" stroke-linecap="round"></path></g>		<g transform="matrix(1 0 0 1 52.29 134)" id="path3270"><path style="stroke: rgb(1,1,1); stroke-width: 4; stroke-dasharray: none; stroke-linecap: round; stroke-dashoffset: 0; stroke-linejoin: round; stroke-miterlimit: 4; fill: rgb(249,213,228); fill-rule: nonzero; opacity: 1;" transform=" translate(-238.96, -426.77)" d="M 236.212 416.508 C 229.761 418.238 225.76 424.23699999999997 227.27499999999998 429.90299999999996 C 228.79199999999997 435.57099999999997 235.25099999999998 438.76 241.70199999999997 437.03 C 248.15099999999998 435.29999999999995 252.15199999999996 429.301 250.63699999999997 423.63399999999996 C 249.121 417.967 242.662 414.777 236.212 416.508 L 236.212 416.508 z" stroke-linecap="round"></path></g>		<g transform="matrix(1 0 0 1 45.4 108.26)" id="path3272"><path style="stroke: rgb(1,1,1); stroke-width: 4; stroke-dasharray: none; stroke-linecap: round; stroke-dashoffset: 0; stroke-linejoin: round; stroke-miterlimit: 4; fill: rgb(249,213,228); fill-rule: nonzero; opacity: 1;" transform=" translate(-232.07, -401.03)" d="M 229.325 390.77 C 222.875 392.5 218.874 398.49899999999997 220.38899999999998 404.166 C 221.90499999999997 409.832 228.36499999999998 413.021 234.81499999999997 411.291 C 241.26499999999996 409.562 245.26599999999996 403.562 243.75099999999998 397.896 C 242.234 392.228 235.776 389.04 229.325 390.77 L 229.325 390.77 z" stroke-linecap="round"></path></g>		<g transform="matrix(1 0 0 1 42.48 122.81)" id="path3274"><path style="stroke: rgb(1,1,1); stroke-width: 4; stroke-dasharray: none; stroke-linecap: round; stroke-dashoffset: 0; stroke-linejoin: round; stroke-miterlimit: 4; fill: rgb(249,213,228); fill-rule: nonzero; opacity: 1;" transform=" translate(-229.15, -415.58)" d="M 226.406 405.32 C 219.957 407.051 215.957 413.049 217.471 418.716 C 218.986 424.384 225.446 427.573 231.89600000000002 425.843 C 238.347 424.113 242.347 418.11400000000003 240.83300000000003 412.44800000000004 C 239.316 406.78 232.857 403.59 226.406 405.32 L 226.406 405.32 z" stroke-linecap="round"></path></g>		<g transform="matrix(1 0 0 1 9.21 15.68)" id="path3293_1_"><path style="stroke: none; stroke-width: 1; stroke-dasharray: none; stroke-linecap: butt; stroke-dashoffset: 0; stroke-linejoin: miter; stroke-miterlimit: 4; fill: rgb(1,1,1); fill-rule: nonzero; opacity: 1;" transform=" translate(-195.88, -308.46)" d="M 296.943 245.978 C 298.406 251.79500000000002 301.131 256 303.93899999999996 263.962 C 321.14699999999993 312.729 251.79099999999997 356.04499999999996 187.53399999999996 356.04499999999996 C 139.34199999999996 356.04499999999996 97.96799999999996 332.85599999999994 80.28799999999997 299.80899999999997 C 90.95799999999997 341.952 138.08199999999997 373.616 194.414 370.758 C 275.144 366.666 317.28999999999996 327 310.81899999999996 281.67499999999995 C 309.033 269.156 306.676 257.333 296.943 245.978 z" stroke-linecap="round"></path></g>		<g transform="matrix(1 0 0 1 1.12 -110.27)" id="path293"><path style="stroke: rgb(1,1,1); stroke-width: 4; stroke-dasharray: none; stroke-linecap: round; stroke-dashoffset: 0; stroke-linejoin: round; stroke-miterlimit: 4; fill: rgb(255,255,255); fill-rule: nonzero; opacity: 1;" transform=" translate(-187.79, -182.5)" d="M 371.331 2 C 252.666 37.347 231.329 104.324 231.239 147.699 C 218.504 139.637 203.652 135 187.786 135 C 171.92000000000002 135 157.067 139.637 144.332 147.7 C 144.243 104.325 122.905 37.347 4.239 2 C 4.239 2 2.559 173.944 110.053 188.375 C 105.698 198.514 103.005 209.643 102.38499999999999 221.369 C 78.75699999999999 236.334 64.035 257.44100000000003 64.035 280.834 C 64.035 326.213 119.43799999999999 363.001 187.785 363.001 C 256.13 363.001 311.533 326.214 311.533 280.83399999999995 C 311.533 257.4409999999999 296.812 236.33399999999995 273.183 221.36899999999994 C 272.56399999999996 209.64199999999994 269.871 198.51399999999995 265.516 188.37499999999994 C 373.013 173.943 371.331 2 371.331 2 z" stroke-linecap="round"></path></g>		<g transform="matrix(1 0 0 1 1.82 7.68)" id="path3293"><path style="stroke: none; stroke-width: 1; stroke-dasharray: none; stroke-linecap: butt; stroke-dashoffset: 0; stroke-linejoin: miter; stroke-miterlimit: 4; fill: rgb(1,1,1); fill-rule: nonzero; opacity: 1;" transform=" translate(-188.49, -300.46)" d="M 294.803 237.978 C 296.342 243.79500000000002 299.206 248 302.161 255.96200000000002 C 320.263 304.72900000000004 247.306 348.045 179.714 348.045 C 129.02100000000002 348.045 85.499 324.856 66.901 291.809 C 78.127 333.952 127.696 365.61600000000004 186.953 362.75800000000004 C 271.874 358.667 316.206 319 309.4 273.674 C 307.521 261.156 305.039 249.333 294.803 237.978 z" stroke-linecap="round"></path></g>		<g transform="matrix(1 0 0 1 -112.7 -196.7)" id="path298"><path style="stroke: rgb(1,1,1); stroke-width: 4; stroke-dasharray: none; stroke-linecap: round; stroke-dashoffset: 0; stroke-linejoin: round; stroke-miterlimit: 4; fill: rgb(249,213,228); fill-rule: nonzero; opacity: 1;" transform=" translate(-73.96, -96.07)" d="M 125.592 166.274 C 125.592 166.274 144.749 62.253 21.257999999999996 25.468999999999994 C 21.258 25.469 34.944 175.471 125.592 166.274 z" stroke-linecap="round"></path></g>		<g transform="matrix(1 0 0 1 114.94 -196.7)" id="path300"><path style="stroke: rgb(1,1,1); stroke-width: 4; stroke-dasharray: none; stroke-linecap: round; stroke-dashoffset: 0; stroke-linejoin: round; stroke-miterlimit: 4; fill: rgb(249,213,228); fill-rule: nonzero; opacity: 1;" transform=" translate(-301.61, -96.07)" d="M 249.979 166.274 C 249.979 166.274 230.82500000000002 62.253 354.315 25.468999999999994 C 354.314 25.469 340.627 175.471 249.979 166.274 z" stroke-linecap="round"></path></g>		<g transform="matrix(1 0 0 1 1.12 8.79)" id="path3192_1_"><path style="stroke: rgb(1,1,1); stroke-width: 4; stroke-dasharray: none; stroke-linecap: butt; stroke-dashoffset: 0; stroke-linejoin: miter; stroke-miterlimit: 4; fill: rgb(249,213,228); fill-rule: nonzero; opacity: 1;" transform=" translate(-187.79, -301.56)" d="M 171.33 292.049 C 176.709 286.30499999999995 199.549 285.058 204.32600000000002 292.767 C 209.10000000000002 300.475 197.151 316.459 187.82700000000003 315.743 C 178.53 315.025 166.297 297.422 171.33 292.049 z" stroke-linecap="round"></path></g>		<g transform="matrix(1 0 0 1 -29.31 -69.93)" id="path3177_1_"><path style="stroke: rgb(1,1,1); stroke-width: 4; stroke-dasharray: none; stroke-linecap: round; stroke-dashoffset: 0; stroke-linejoin: round; stroke-miterlimit: 4; fill: rgb(255,255,255); fill-rule: nonzero; opacity: 1;" transform=" translate(-157.35, -222.85)" d="M 184.827 222.847 C 184.827 238.03400000000002 172.526 250.345 157.352 250.345 C 142.179 250.345 129.87800000000001 238.033 129.87800000000001 222.847 C 129.87800000000001 207.66100000000003 142.179 195.34900000000002 157.352 195.34900000000002 C 172.527 195.349 184.827 207.66 184.827 222.847 z" stroke-linecap="round"></path></g>		<g transform="matrix(1 0 0 1 -19.19 -66.54)" id="path3181_1_"><path style="stroke: none; stroke-width: 1; stroke-dasharray: none; stroke-linecap: butt; stroke-dashoffset: 0; stroke-linejoin: miter; stroke-miterlimit: 4; fill: rgb(1,1,1); fill-rule: nonzero; opacity: 1;" transform=" translate(-167.48, -226.23)" d="M 176.352 226.231 C 176.352 231.138 172.37800000000001 235.115 167.476 235.115 C 162.575 235.115 158.6 231.138 158.6 226.231 C 158.6 221.325 162.575 217.34699999999998 167.476 217.34699999999998 C 172.378 217.347 176.352 221.325 176.352 226.231 L 176.352 226.231 z" stroke-linecap="round"></path></g>		<g transform="matrix(1 0 0 1 31.55 -69.93)" id="path3179_1_"><path style="stroke: rgb(1,1,1); stroke-width: 4; stroke-dasharray: none; stroke-linecap: round; stroke-dashoffset: 0; stroke-linejoin: round; stroke-miterlimit: 4; fill: rgb(255,255,255); fill-rule: nonzero; opacity: 1;" transform=" translate(-218.22, -222.85)" d="M 245.691 222.847 C 245.691 238.03400000000002 233.391 250.345 218.21800000000002 250.345 C 203.04500000000004 250.345 190.74400000000003 238.033 190.74400000000003 222.847 C 190.74400000000003 207.66100000000003 203.04500000000002 195.34900000000002 218.21800000000002 195.34900000000002 C 233.39100000000002 195.34900000000002 245.691 207.66 245.691 222.847 z" stroke-linecap="round"></path></g>		<g transform="matrix(1 0 0 1 21.41 -66.54)" id="path3183_1_"><path style="stroke: none; stroke-width: 1; stroke-dasharray: none; stroke-linecap: butt; stroke-dashoffset: 0; stroke-linejoin: miter; stroke-miterlimit: 4; fill: rgb(1,1,1); fill-rule: nonzero; opacity: 1;" transform=" translate(-208.08, -226.23)" d="M 216.953 226.231 C 216.953 231.138 212.977 235.115 208.077 235.115 C 203.175 235.115 199.2 231.138 199.2 226.231 C 199.2 221.325 203.17499999999998 217.34699999999998 208.077 217.34699999999998 C 212.979 217.348 216.953 221.325 216.953 226.231 L 216.953 226.231 z" stroke-linecap="round"></path></g>		<g transform="matrix(1 0 0 1 1.12 46.73)" id="path317"><path style="stroke: rgb(1,1,1); stroke-width: 4; stroke-dasharray: none; stroke-linecap: butt; stroke-dashoffset: 0; stroke-linejoin: round; stroke-miterlimit: 4; fill: rgb(255,255,255); fill-rule: nonzero; opacity: 1;" transform=" translate(-187.79, -339.51)" d="M 210.612 332.03 C 205.67499999999998 334.14 195.988 330.616 189.406 328.54999999999995 C 188.941 328.40399999999994 188.566 328.40899999999993 188.255 328.518 C 187.94299999999998 327.905 187.41899999999998 327.68699999999995 186.612 328.03299999999996 C 181.67499999999998 330.14199999999994 171.988 334.61899999999997 165.406 332.55299999999994 C 159.251 330.6189999999999 167.17000000000002 348.6329999999999 169.375 350.13699999999994 C 171.424 351.5369999999999 180.832 351.5199999999999 182.807 349.80799999999994 C 184.07199999999997 348.71099999999996 186.55399999999997 342.04099999999994 187.82399999999998 336.3399999999999 C 189.19 342.1979999999999 192.15599999999998 349.3059999999999 193.37699999999998 350.13699999999994 C 195.426 351.5369999999999 204.83399999999997 351.5199999999999 206.80899999999997 349.80799999999994 C 208.958 347.939 215.681 329.862 210.612 332.03 z" stroke-linecap="round"></path></g>		<g transform="matrix(1 0 0 1 32.04 13.95)" id="path2400"><path style="stroke: rgb(1,1,1); stroke-width: 4; stroke-dasharray: none; stroke-linecap: round; stroke-dashoffset: 0; stroke-linejoin: round; stroke-miterlimit: 4; fill: rgb(255,255,255); fill-opacity: 0; fill-rule: nonzero; opacity: 1;" transform=" translate(-221.23, -311.76)" d="M 250.136 286.4 C 255.90699999999998 307.89799999999997 243.121 329.996 221.576 335.755 C 211.23 338.522 200.207 337.072 190.932 331.729" stroke-linecap="round"></path></g>		<g transform="matrix(1 0 0 1 -29.8 13.95)" id="path3176"><path style="stroke: rgb(1,1,1); stroke-width: 4; stroke-dasharray: none; stroke-linecap: round; stroke-dashoffset: 0; stroke-linejoin: round; stroke-miterlimit: 4; fill: rgb(255,255,255); fill-opacity: 0; fill-rule: nonzero; opacity: 1;" transform=" translate(-159.39, -311.76)" d="M 130.481 286.4 C 124.708 307.89799999999997 137.493 329.996 159.037 335.755 C 169.38500000000002 338.522 180.406 337.072 189.683 331.729" stroke-linecap="round"></path></g>		<g transform="matrix(1 0 0 1 103.12 -0.63)" id="path3182"><path style="stroke: rgb(1,1,1); stroke-width: 4; stroke-dasharray: none; stroke-linecap: round; stroke-dashoffset: 0; stroke-linejoin: miter; stroke-miterlimit: 4; fill: rgb(255,255,255); fill-opacity: 0; fill-rule: nonzero; opacity: 1;" transform=" translate(-289.78, -302.85)" d="M 243.21 304.281 C 305.781 285.951 336.35900000000004 308.57800000000003 336.35900000000004 308.57800000000003" stroke-linecap="round"></path></g>		<g transform="matrix(1 0 0 1 84.23 19.61)" id="path3184"><path style="stroke: rgb(1,1,1); stroke-width: 4; stroke-dasharray: none; stroke-linecap: round; stroke-dashoffset: 0; stroke-linejoin: miter; stroke-miterlimit: 4; fill: rgb(255,255,255); fill-opacity: 0; fill-rule: nonzero; opacity: 1;" transform=" translate(-270.9, -323.09)" d="M 234.234 316.572 C 278.545 306.687 307.562 331.9 307.562 331.9" stroke-linecap="round"></path></g>		<g transform="matrix(1 0 0 1 67.46 36.68)" id="path3186"><path style="stroke: rgb(1,1,1); stroke-width: 4; stroke-dasharray: none; stroke-linecap: round; stroke-dashoffset: 0; stroke-linejoin: miter; stroke-miterlimit: 4; fill: rgb(255,255,255); fill-opacity: 0; fill-rule: nonzero; opacity: 1;" transform=" translate(-254.12, -340.16)" d="M 230.552 329.719 C 264.639 326.87399999999997 277.693 350.827 277.693 350.827" stroke-linecap="round"></path></g>		<g transform="matrix(-1 0 0 1 -100.88 -0.63)" id="path3195"><path style="stroke: rgb(1,1,1); stroke-width: 4; stroke-dasharray: none; stroke-linecap: round; stroke-dashoffset: 0; stroke-linejoin: miter; stroke-miterlimit: 4; fill: rgb(255,255,255); fill-opacity: 0; fill-rule: nonzero; opacity: 1;" transform=" translate(-565.77, -302.85)" d="M 519.193 304.281 C 581.764 285.951 612.342 308.57800000000003 612.342 308.57800000000003" stroke-linecap="round"></path></g>		<g transform="matrix(-1 0 0 1 -81.99 19.61)" id="path3197"><path style="stroke: rgb(1,1,1); stroke-width: 4; stroke-dasharray: none; stroke-linecap: round; stroke-dashoffset: 0; stroke-linejoin: miter; stroke-miterlimit: 4; fill: rgb(255,255,255); fill-opacity: 0; fill-rule: nonzero; opacity: 1;" transform=" translate(-546.88, -323.09)" d="M 510.218 316.572 C 554.527 306.687 583.544 331.9 583.544 331.9" stroke-linecap="round"></path></g>		<g transform="matrix(-1 0 0 1 -65.22 36.68)" id="path3199"><path style="stroke: rgb(1,1,1); stroke-width: 4; stroke-dasharray: none; stroke-linecap: round; stroke-dashoffset: 0; stroke-linejoin: miter; stroke-miterlimit: 4; fill: rgb(255,255,255); fill-opacity: 0; fill-rule: nonzero; opacity: 1;" transform=" translate(-530.11, -340.16)" d="M 506.533 329.719 C 540.623 326.87399999999997 553.677 350.827 553.677 350.827" stroke-linecap="round"></path></g></g></g><g transform="matrix(0.66 0 0 0.66 615 401.92)" id="1718773238866"><filter id="SVGID_7" y="-30%" height="160%" x="-35%" width="170%">	<feGaussianBlur in="SourceAlpha" stdDeviation="5"></feGaussianBlur>	<feOffset dx="10" dy="6" result="oBlur"></feOffset>	<feFlood flood-color="rgb(219,56,56)" flood-opacity="1"></feFlood>	<feComposite in2="oBlur" operator="in"></feComposite>	<feMerge>		<feMergeNode></feMergeNode>		<feMergeNode in="SourceGraphic"></feMergeNode>	</feMerge></filter>	<image style="stroke: none; stroke-width: 0; stroke-dasharray: none; stroke-linecap: butt; stroke-dashoffset: 0; stroke-linejoin: miter; stroke-miterlimit: 4; fill: none; fill-rule: nonzero; opacity: 1;filter: url(#SVGID_7);" xlink:href="https://play.fancyproductdesigner.com/wp-content/uploads/2024/06/alien.png?t=1718773238866" x="-67.5" y="-78.5" width="135" height="157"></image></g></svg>